<svg xmlns="http://www.w3.org/2000/svg" viewBox="0 0 1200 560" role="img" aria-labelledby="title desc">
  <title id="title">Poker tools workspace</title>
  <desc id="desc">A clean desk scene with a laptop dashboard, poker cards, chips, and analysis notes.</desc>
  <defs>
    <linearGradient id="bg" x1="0" x2="1" y1="0" y2="1">
      <stop offset="0" stop-color="#f8fafc"/>
      <stop offset="0.52" stop-color="#eef4f8"/>
      <stop offset="1" stop-color="#f7efe6"/>
    </linearGradient>
    <linearGradient id="screen" x1="0" x2="1" y1="0" y2="1">
      <stop offset="0" stop-color="#172033"/>
      <stop offset="1" stop-color="#26364f"/>
    </linearGradient>
    <filter id="shadow" x="-20%" y="-20%" width="140%" height="150%">
      <feDropShadow dx="0" dy="18" stdDeviation="24" flood-color="#0f172a" flood-opacity="0.16"/>
    </filter>
  </defs>
  <rect width="1200" height="560" fill="url(#bg)"/>
  <path d="M0 420 C190 365 311 448 500 401 C745 342 861 248 1200 330 L1200 560 L0 560 Z" fill="#ffffff" opacity="0.82"/>
  <g filter="url(#shadow)">
    <rect x="420" y="104" width="520" height="314" rx="18" fill="#1f2937"/>
    <rect x="446" y="130" width="468" height="254" rx="10" fill="url(#screen)"/>
    <rect x="391" y="414" width="578" height="28" rx="14" fill="#cbd5e1"/>
    <rect x="570" y="418" width="218" height="7" rx="3.5" fill="#94a3b8"/>
    <g fill="none" stroke-linecap="round" stroke-linejoin="round">
      <path d="M500 315 L590 260 L680 286 L795 198 L872 224" stroke="#22c55e" stroke-width="10"/>
      <path d="M500 325 L590 292 L680 304 L795 254 L872 276" stroke="#f59e0b" stroke-width="8"/>
      <path d="M500 336 L590 334 L680 324 L795 319 L872 300" stroke="#ef4444" stroke-width="7"/>
    </g>
    <g>
      <rect x="494" y="168" width="108" height="54" rx="10" fill="#ffffff" opacity="0.1"/>
      <rect x="624" y="168" width="108" height="54" rx="10" fill="#ffffff" opacity="0.1"/>
      <rect x="754" y="168" width="108" height="54" rx="10" fill="#ffffff" opacity="0.1"/>
      <rect x="514" y="188" width="68" height="10" rx="5" fill="#93c5fd"/>
      <rect x="644" y="188" width="68" height="10" rx="5" fill="#facc15"/>
      <rect x="774" y="188" width="68" height="10" rx="5" fill="#34d399"/>
    </g>
  </g>
  <g filter="url(#shadow)">
    <rect x="159" y="178" width="146" height="204" rx="10" fill="#ffffff" transform="rotate(-9 232 280)"/>
    <rect x="197" y="203" width="70" height="96" rx="8" fill="#f8fafc" transform="rotate(-9 232 280)"/>
    <path d="M225 270 C207 246 241 244 232 278 C229 292 221 300 214 306 L252 300 C242 296 236 288 232 278" fill="#ef4444" transform="rotate(-9 232 280)"/>
    <text x="177" y="221" fill="#111827" font-family="Arial, sans-serif" font-size="42" font-weight="700" transform="rotate(-9 177 221)">A</text>
    <rect x="246" y="197" width="146" height="204" rx="10" fill="#ffffff" transform="rotate(8 319 299)"/>
    <path d="M323 285 C310 264 333 251 346 270 C358 252 384 264 370 288 C358 309 340 323 323 338 C306 323 289 305 323 285 Z" fill="#111827" transform="rotate(8 319 299)"/>
    <text x="266" y="241" fill="#111827" font-family="Arial, sans-serif" font-size="42" font-weight="700" transform="rotate(8 266 241)">K</text>
  </g>
  <g filter="url(#shadow)">
    <circle cx="1014" cy="188" r="55" fill="#f59e0b"/>
    <circle cx="1014" cy="188" r="38" fill="none" stroke="#fff7ed" stroke-width="8" opacity="0.9"/>
    <circle cx="1060" cy="239" r="55" fill="#ef4444"/>
    <circle cx="1060" cy="239" r="38" fill="none" stroke="#fff1f2" stroke-width="8" opacity="0.86"/>
    <circle cx="1000" cy="286" r="55" fill="#2563eb"/>
    <circle cx="1000" cy="286" r="38" fill="none" stroke="#dbeafe" stroke-width="8" opacity="0.86"/>
  </g>
  <g>
    <rect x="92" y="424" width="282" height="22" rx="11" fill="#111827" opacity="0.1"/>
    <rect x="92" y="455" width="212" height="16" rx="8" fill="#111827" opacity="0.08"/>
    <rect x="92" y="484" width="310" height="16" rx="8" fill="#111827" opacity="0.08"/>
  </g>
</svg>
